<svg viewBox="0 0 512 512" xmlns="http://www.w3.org/2000/svg">
  <rect width="512" height="512" fill="#141318"/>
  <path d="m 424.7793,395.04297 h -97.82227 v -7.99805 q 2.46094,-0.20508 7.79297,-0.82031 5.53711,-0.61524 11.07422,-2.05078 5.74219,-1.23047 9.84375,-3.48633 4.30664,-2.25586 4.30664,-5.74219 0,-0.61523 -5.74219,-6.76758 -5.53711,-5.94726 -14.15039,-14.76562 -8.4082,-8.81836 -18.66211,-19.07227 -10.2539,-10.04882 -19.48242,-19.07226 -9.22852,-9.22852 -16.20117,-15.9961 -6.76758,-6.97265 -8.61328,-8.81836 v 58.85743 q 0,12.09961 2.05078,19.48242 2.25586,7.38281 7.17773,11.2793 4.92188,4.10156 12.71485,5.33203 7.79296,1.43554 19.27734,1.64062 v 7.99805 h -124.6875 v -7.99805 q 11.68945,-0.20508 19.48242,-1.43555 7.79297,-1.23046 12.50977,-5.12695 4.71679,-3.89648 6.5625,-11.2793 2.05078,-7.38281 2.05078,-19.89257 v -58.24219 q -1.8457,1.8457 -8.61328,8.61328 -6.76758,6.76758 -15.9961,15.79102 -9.22851,9.02343 -19.27734,19.07226 -10.04883,10.25391 -18.66211,18.86719 -8.61328,8.81836 -14.15039,14.76562 -5.53711,5.94727 -5.53711,6.76758 0,3.48633 4.10156,5.74219 4.30664,2.25586 9.84375,3.48633 5.74219,1.43554 11.07422,2.05078 5.53711,0.61523 7.99805,0.82031 v 7.99805 H 87.220703 v -7.99805 q 2.871094,-0.20508 6.152344,-0.61523 3.486328,-0.41016 6.767583,-1.23047 3.28125,-0.82031 6.15234,-2.25586 3.07617,-1.23047 5.33203,-3.48633 L 214.57422,277.32812 h -51.88477 q -12.09961,0 -19.48242,2.25586 -7.38281,2.05079 -11.48437,6.97266 -3.89649,4.92188 -5.33203,12.71484 -1.23047,7.79297 -1.43555,19.07227 h -7.99805 v -124.6875 h 7.99805 q 0.20508,11.68945 1.43555,19.6875 1.23046,7.79297 5.12695,12.50977 3.89648,4.71679 11.27929,6.76757 7.38282,1.84571 19.89258,1.84571 h 58.44727 l -97.82227,-98.23243 q -3.48632,-3.48632 -7.79297,-5.5371 -4.30664,-2.05079 -9.02343,-3.28125 -4.7168,-1.23047 -9.843753,-1.64063 -4.921875,-0.61523 -9.433594,-0.82031 v -7.99805 h 99.873047 v 7.99805 q -2.25586,0.20508 -7.38281,0.61523 -5.12696,0.20508 -10.25391,1.23047 -5.12695,1.02539 -9.02344,3.07617 -3.89648,2.05078 -3.89648,5.74219 0,0.61523 3.07617,4.10156 3.07617,3.28125 7.99805,8.61328 5.12695,5.12696 11.48437,11.68946 6.5625,6.5625 13.53516,13.53515 6.97266,6.97266 13.74023,13.74024 6.97266,6.76758 12.71485,12.50976 5.74218,5.53711 9.63867,9.4336 4.10156,3.89648 5.53711,5.33203 v -51.88477 q 0,-11.89453 -2.05078,-19.27734 -2.05078,-7.38281 -6.97266,-11.2793 -4.7168,-4.10156 -12.50976,-5.53711 -7.79297,-1.43554 -19.07227,-1.64062 v -7.99805 h 124.6875 v 7.99805 q -11.48438,0.41015 -19.27734,1.8457 -7.79297,1.23047 -12.71485,5.12695 -4.92187,3.89649 -7.17773,11.2793 -2.05078,7.17774 -2.05078,19.48242 v 52.29492 q 1.8457,-1.8457 8.4082,-8.20312 6.5625,-6.35742 15.17578,-14.9707 8.61328,-8.61328 18.25195,-18.04688 9.84375,-9.63867 17.8418,-17.8418 7.99805,-8.20312 13.33008,-13.74023 5.33203,-5.74219 5.33203,-6.5625 0,-3.69141 -3.89648,-5.74219 -3.89649,-2.05078 -9.22852,-3.07617 -5.12695,-1.02539 -10.25391,-1.23047 -4.92187,-0.41015 -7.38281,-0.61523 v -7.99805 H 424.7793 v 7.99805 q -4.7168,0.20508 -9.63868,0.82031 -4.92187,0.41016 -9.63867,1.64063 -4.71679,1.23046 -9.22851,3.48632 -4.30664,2.05078 -7.58789,5.33203 l -97.82227,98.23243 h 58.44727 q 11.89453,0 19.27734,-2.05078 7.38281,-2.25586 11.2793,-6.97266 4.10156,-4.7168 5.53711,-12.50977 1.43554,-7.79297 1.64062,-19.27734 h 7.99805 v 124.6875 h -7.99805 q -0.41015,-11.2793 -1.8457,-19.07227 -1.23047,-7.79296 -5.12695,-12.71484 -3.89649,-4.92187 -11.2793,-6.97266 -7.17774,-2.25586 -19.48242,-2.25586 H 297.42578 L 400.375,379.45703 q 2.05078,2.05078 5.12695,3.28125 3.07617,1.43555 6.35742,2.25586 3.48633,1.02539 6.76758,1.43555 3.28125,0.41015 6.15235,0.61523 z" fill="#c6930a"/>
</svg>
